/* XPM */
static char *nixos_logo[] = {
/* columns rows colors chars-per-pixel */
"20 17 59 1 ",
"  c None",
". c #4869AB",
"X c #496AAE",
"o c #4B6DAF",
"O c #4A6CB0",
"+ c #4A6CB1",
"@ c #4B6DB3",
"# c #4C6FB1",
"$ c #4C6EB4",
"% c #4C6FB6",
"& c #4D6FB6",
"* c #4D6FB7",
"= c #4D70B8",
"- c #4E71B9",
"; c #4E71BA",
": c #4E72BA",
"> c #4E72BB",
", c #4F73BD",
"< c #5074BE",
"1 c #5074BF",
"2 c #5175BF",
"3 c #5075C0",
"4 c #5175C0",
"5 c #5175C1",
"6 c #5176C1",
"7 c #5176C2",
"8 c #5176C3",
"9 c #5276C2",
"0 c #5277C2",
"q c #5276C3",
"w c #5277C3",
"e c #5E89C0",
"r c #638ECC",
"t c #6492C7",
"y c #6490CD",
"u c #79ABDA",
"i c #7AADDB",
"p c #7AACDC",
"a c #7CAFDC",
"s c #7CB0DC",
"d c #7EB1DD",
"f c #7EB2DD",
"g c #7EB2DE",
"h c #7EB3DF",
"j c #7EB4DF",
"k c #7EB4E0",
"l c #7EB5E0",
"z c #7DB6E1",
"x c #7EB6E1",
"c c #7EB7E1",
"v c #7EB7E2",
"b c #7DB8E3",
"n c #7DB9E3",
"m c #7EB8E2",
"M c #7EB8E3",
"N c #7EB9E3",
"B c #7EBAE3",
"V c #7DBAE4",
"C c #7EBAE4",
/* pixels */
"     0   BCC  B     ",
"     0<   CC BB     ",
"     0<;  CBBkk     ",
"   000<;*@#kkk      ",
"  0000<;*@Xekk  00  ",
"      u     jgg 00  ",
"     gg      gg00   ",
"    kjg      pr<00  ",
"BBBkkk        ;;,<00",
"  BBkt.      **;    ",
"   CB@@      @@     ",
"  BB @$*     o      ",
"  CC  ;;yggjkkBCCC  ",
"      ;,<igjkkBBB   ",
"     ,<000  kkB     ",
"     <0 00   BB     ",
"     0  000   B     "
};
